<svg width="57" height="56" viewBox="0 0 57 56" fill="none" xmlns="http://www.w3.org/2000/svg">
<path d="M33.8438 10.5H12.4688C11.4855 10.5 10.6875 11.284 10.6875 12.25C10.6875 13.216 11.4855 14 12.4688 14H33.8438C34.827 14 35.625 13.216 35.625 12.25C35.625 11.284 34.827 10.5 33.8438 10.5Z" fill="#75A3D2"/>
<path d="M26.7188 17.5H12.4688C11.4855 17.5 10.6875 18.284 10.6875 19.25C10.6875 20.216 11.4855 21 12.4688 21H26.7188C27.702 21 28.5 20.216 28.5 19.25C28.5 18.284 27.702 17.5 26.7188 17.5Z" fill="#75A3D2"/>
<path d="M39.1875 0H7.125C3.19556 0 0 3.1395 0 7V42C0 42.679 0.399 43.2985 1.026 43.5855C1.26469 43.694 1.52475 43.75 1.78125 43.75C2.19094 43.75 2.59706 43.61 2.92125 43.344L13.1136 35H39.1875C43.1169 35 46.3125 31.8605 46.3125 28V7C46.3125 3.1395 43.1169 0 39.1875 0ZM42.75 28C42.75 29.9285 41.154 31.5 39.1875 31.5H12.4688C12.0519 31.5 11.6494 31.6435 11.3288 31.906L3.5625 38.2655V7C3.5625 5.0715 5.1585 3.5 7.125 3.5H39.1875C41.154 3.5 42.75 5.0715 42.75 7V28Z" fill="#75A3D2"/>
<path d="M49.875 14C48.8918 14 48.0938 14.784 48.0938 15.75C48.0938 16.716 48.8918 17.5 49.875 17.5C51.8415 17.5 53.4375 19.0715 53.4375 21V50.6065L47.424 45.8815C47.1105 45.6365 46.7151 45.5 46.3125 45.5H21.375C19.4085 45.5 17.8125 43.9285 17.8125 42V40.25C17.8125 39.284 17.0145 38.5 16.0312 38.5C15.048 38.5 14.25 39.284 14.25 40.25V42C14.25 45.8605 17.4456 49 21.375 49H45.6855L54.1037 55.6185C54.4279 55.8705 54.8233 56 55.2188 56C55.4788 56 55.7424 55.944 55.9918 55.8285C56.6081 55.5345 57 54.922 57 54.25V21C57 17.1395 53.8044 14 49.875 14Z" fill="#75A3D2"/>
</svg>
