<svg width="56" height="56" viewBox="0 0 56 56" fill="none" xmlns="http://www.w3.org/2000/svg">
<path d="M54.3594 4.04175H47.1731C47.1992 3.24579 47.2137 2.44513 47.2137 1.64062C47.2137 0.734436 46.4788 0 45.5731 0H10.4269C9.52118 0 8.78632 0.734436 8.78632 1.64062C8.78632 2.44513 8.80084 3.24579 8.8269 4.04175H1.64062C0.734436 4.04175 0 4.77618 0 5.68237C0 13.0336 1.92133 19.9691 5.40979 25.2118C8.85809 30.3947 13.4514 33.3675 18.4135 33.6567C19.5384 34.8808 20.7274 35.8788 21.966 36.6402V43.932H19.2137C15.8863 43.932 13.1797 46.639 13.1797 49.966V52.7183H13.063C12.1569 52.7183 11.4224 53.4532 11.4224 54.3589C11.4224 55.2651 12.1569 55.9996 13.063 55.9996H42.937C43.8431 55.9996 44.5776 55.2651 44.5776 54.3589C44.5776 53.4532 43.8431 52.7183 42.937 52.7183H42.8203V49.966C42.8203 46.639 40.1137 43.932 36.7863 43.932H34.034V36.6402C35.2726 35.8793 36.462 34.8808 37.587 33.6567C42.5486 33.3675 47.1419 30.3947 50.5906 25.2118C54.0791 19.9691 56 13.0336 56 5.68237C56 4.77618 55.2656 4.04175 54.3594 4.04175ZM8.1416 23.3943C5.2641 19.0701 3.57349 13.4142 3.31586 7.323H9.01019C9.60193 14.8109 11.3596 21.7323 14.1068 27.2263C14.5443 28.1013 15.0019 28.928 15.4766 29.7064C12.7477 28.6759 10.2223 26.5217 8.1416 23.3943ZM39.5391 49.966V52.7188H16.4609V49.966C16.4609 48.4484 17.6957 47.2133 19.2137 47.2133H36.7863C38.3043 47.2133 39.5391 48.4484 39.5391 49.966ZM30.7527 43.932H25.2473V38.0659C26.1492 38.3035 27.0682 38.4269 28 38.4269C28.9318 38.4269 29.8508 38.3035 30.7527 38.0659V43.932ZM31.7687 34.1626C31.6948 34.1929 31.6239 34.2297 31.556 34.2703C30.3964 34.847 29.2048 35.1457 28 35.1457C26.7956 35.1457 25.6044 34.847 24.4453 34.2711C24.3765 34.2297 24.3052 34.1929 24.2304 34.1617C22.944 33.4816 21.6994 32.4545 20.5223 31.1048C20.4604 31.0164 20.3907 30.9348 20.3134 30.8604C19.1449 29.4731 18.0456 27.7667 17.0416 25.7587C14.0265 19.7289 12.285 11.8005 12.0868 3.28125H43.9132C43.7145 11.8005 41.9731 19.7294 38.9584 25.7587C37.9544 27.7667 36.8551 29.4731 35.687 30.8604C35.6093 30.9348 35.5388 31.0168 35.4772 31.1052C34.3002 32.4553 33.0552 33.482 31.7687 34.1626ZM47.8584 23.3943C45.7777 26.5217 43.2523 28.6759 40.5234 29.7064C40.9981 28.928 41.4557 28.1013 41.8932 27.2263C44.6404 21.7323 46.3976 14.8109 46.9898 7.323H52.6841C52.4265 13.4142 50.7359 19.0701 47.8584 23.3943Z" fill="#75A3D2"/>
</svg>
