<svg width="56" height="56" viewBox="0 0 56 56" fill="none" xmlns="http://www.w3.org/2000/svg">
<path d="M36.75 1.75C27.4191 1.75 17.5 4.816 17.5 10.5V17.5C17.5 18.466 18.284 19.25 19.25 19.25C20.216 19.25 21 18.466 21 17.5V15.6765C24.7135 18.018 30.8455 19.25 36.75 19.25C42.6545 19.25 48.7865 18.018 52.5 15.6765V17.5C52.5 19.2115 48.1949 21.9415 40.1031 22.6171C39.144 22.694 38.4265 23.5445 38.5071 24.5071C38.5805 25.4205 39.3469 26.11 40.2465 26.11C40.2989 26.11 40.3445 26.1065 40.3969 26.1031C44.954 25.7215 49.4935 24.542 52.5 22.6275V24.5C52.5 25.9945 49.3291 28.1435 43.4455 29.1831C42.4971 29.3511 41.86 30.2609 42.028 31.2095C42.1785 32.0565 42.9169 32.6549 43.7465 32.6549C43.848 32.6549 43.9529 32.648 44.0545 32.6269C47.614 32.0005 50.4629 30.9749 52.5 29.6729V31.5C52.5 32.9945 49.3291 35.1435 43.4455 36.1831C42.4971 36.3511 41.86 37.2609 42.028 38.2095C42.1785 39.0565 42.9169 39.6549 43.7465 39.6549C43.848 39.6549 43.9529 39.648 44.0545 39.6269C47.614 39.0005 50.4629 37.9715 52.5 36.6729V38.5C52.5 39.9945 49.3291 42.1435 43.4455 43.1831C42.4971 43.3509 41.86 44.2609 42.028 45.2095C42.1785 46.0565 42.9169 46.6549 43.7465 46.6549C43.848 46.6549 43.9529 46.648 44.0545 46.6269C47.614 46.0005 50.4629 44.9715 52.5 43.6729V45.5C52.5 47.2115 48.1949 49.9415 40.1031 50.6169C39.144 50.694 38.4265 51.5445 38.5071 52.5069C38.5805 53.4205 39.3469 54.11 40.2465 54.11C40.2989 54.11 40.3445 54.1065 40.3969 54.1031C48.1635 53.452 56 50.5435 56 45.5V10.5C56 4.816 46.0809 1.75 36.75 1.75ZM36.75 15.75C27.1355 15.75 21 12.6385 21 10.5C21 8.36149 27.1355 5.25 36.75 5.25C46.3645 5.25 52.5 8.36149 52.5 10.5C52.5 12.6385 46.3645 15.75 36.75 15.75Z" fill="#75A3D2"/>
<path d="M19.25 22.75C9.919 22.75 0 25.816 0 31.5V45.5C0 51.184 9.919 54.25 19.25 54.25C28.5809 54.25 38.5 51.184 38.5 45.5V31.5C38.5 25.816 28.5809 22.75 19.25 22.75ZM35 45.5C35 47.6385 28.8645 50.75 19.25 50.75C9.63549 50.75 3.5 47.6385 3.5 45.5V43.6765C7.21351 46.018 13.3455 47.25 19.25 47.25C25.1545 47.25 31.2865 46.018 35 43.6765V45.5ZM35 38.5C35 40.6385 28.8645 43.75 19.25 43.75C9.63549 43.75 3.5 40.6385 3.5 38.5V36.6765C7.21351 39.018 13.3455 40.25 19.25 40.25C25.1545 40.25 31.2865 39.018 35 36.6765V38.5ZM19.25 36.75C9.63549 36.75 3.5 33.6385 3.5 31.5C3.5 29.3615 9.63549 26.25 19.25 26.25C28.8645 26.25 35 29.3615 35 31.5C35 33.6385 28.8645 36.75 19.25 36.75Z" fill="#75A3D2"/>
</svg>
