<svg width="26" height="26" viewBox="0 0 26 26" fill="none" xmlns="http://www.w3.org/2000/svg">
<path d="M20.5488 16.1051C20.0165 15.5509 19.3745 15.2546 18.694 15.2546C18.0191 15.2546 17.3715 15.5454 16.8173 16.0996L15.0833 17.8282C14.9406 17.7513 14.798 17.6801 14.6607 17.6087C14.4632 17.5099 14.2766 17.4166 14.1175 17.3178C12.4932 16.2862 11.0171 14.9418 9.60131 13.2023C8.91533 12.3352 8.45437 11.6054 8.11968 10.8645C8.56961 10.453 8.9867 10.025 9.39281 9.61343C9.54646 9.45978 9.70011 9.30067 9.85376 9.14702C11.0061 7.99462 11.0061 6.50203 9.85376 5.34966L8.35564 3.85158C8.18553 3.68146 8.00993 3.50586 7.8453 3.33026C7.51606 2.99004 7.17034 2.63884 6.81366 2.30959C6.28137 1.78279 5.64482 1.50293 4.97536 1.50293C4.30588 1.50293 3.65836 1.78279 3.10961 2.30959C3.10413 2.31508 3.10413 2.31508 3.09863 2.32056L1.23289 4.20277C0.530497 4.90517 0.129911 5.76122 0.0421115 6.75445C-0.0895884 8.3568 0.382335 9.84936 0.744508 10.8261C1.63348 13.2242 2.96145 15.4467 4.94243 17.8282C7.34594 20.6982 10.2378 22.9644 13.5413 24.5613C14.8034 25.1595 16.4881 25.8674 18.3703 25.9881C18.4855 25.9936 18.6063 25.999 18.716 25.999C19.9836 25.999 21.0482 25.5435 21.8823 24.6382C21.8877 24.6272 21.8987 24.6217 21.9043 24.6107C22.1896 24.265 22.5188 23.9522 22.8645 23.6174C23.1005 23.3925 23.342 23.1565 23.5779 22.9096C24.1211 22.3444 24.4065 21.6859 24.4065 21.0109C24.4065 20.3305 24.1157 19.6774 23.5615 19.1288L20.5488 16.1051ZM22.5133 21.8834C22.5079 21.8834 22.5079 21.889 22.5133 21.8834C22.2993 22.1139 22.0798 22.3224 21.8439 22.5529C21.4872 22.8931 21.125 23.2498 20.7847 23.6504C20.2305 24.243 19.5775 24.5229 18.7215 24.5229C18.6392 24.5229 18.5513 24.5229 18.4691 24.5174C16.8393 24.4131 15.3247 23.7766 14.1888 23.2333C11.0829 21.7298 8.35564 19.5952 6.08931 16.8898C4.21809 14.6344 2.96694 12.5492 2.13833 10.3103C1.62799 8.94397 1.44142 7.87939 1.52373 6.87518C1.57861 6.23314 1.82554 5.70086 2.281 5.24539L4.15223 3.37417C4.42112 3.12174 4.70647 2.98455 4.98633 2.98455C5.33204 2.98455 5.6119 3.19307 5.7875 3.36867C5.79299 3.37417 5.79847 3.37965 5.80396 3.38514C6.1387 3.69793 6.45697 4.02168 6.79171 4.3674C6.96182 4.54299 7.13742 4.71859 7.31302 4.89968L8.81108 6.39777C9.39281 6.97944 9.39281 7.51721 8.81108 8.09889C8.65197 8.25802 8.49832 8.41718 8.33918 8.57083C7.87823 9.04277 7.43923 9.48175 6.96182 9.90975C6.95085 9.92073 6.93988 9.92618 6.93438 9.93717C6.46246 10.4091 6.55026 10.8701 6.64904 11.1828C6.65452 11.1993 6.66001 11.2158 6.6655 11.2322C7.05511 12.1761 7.60386 13.0651 8.43794 14.1242L8.44347 14.1296C9.95801 15.9953 11.5548 17.4496 13.3163 18.5635C13.5413 18.7062 13.7718 18.8215 13.9913 18.9312C14.1888 19.03 14.3754 19.1232 14.5345 19.222C14.5565 19.233 14.5785 19.2494 14.6004 19.2604C14.787 19.3537 14.9626 19.3976 15.1437 19.3976C15.5991 19.3976 15.8844 19.1122 15.9778 19.019L17.8545 17.1423C18.0411 16.9557 18.3374 16.7307 18.6831 16.7307C19.0233 16.7307 19.3032 16.9447 19.4733 17.1313C19.4788 17.1367 19.4788 17.1367 19.4842 17.1423L22.5079 20.1658C23.0731 20.7256 23.0731 21.3018 22.5133 21.8834Z" fill="#4C5959"/>
<path d="M14.0511 6.18492C15.4889 6.42636 16.7949 7.10681 17.8375 8.14943C18.8802 9.19205 19.5551 10.4981 19.802 11.9358C19.8624 12.298 20.1752 12.5504 20.5319 12.5504C20.5758 12.5504 20.6142 12.5449 20.6581 12.5394C21.0642 12.4736 21.3331 12.0895 21.2672 11.6834C20.9709 9.94387 20.1477 8.35795 18.8911 7.10132C17.6345 5.84469 16.0486 5.02157 14.309 4.72525C13.903 4.6594 13.5244 4.92829 13.4531 5.32887C13.3817 5.72946 13.6451 6.11907 14.0511 6.18492Z" fill="#4C5959"/>
<path d="M25.9707 11.4692C25.4824 8.60466 24.1324 5.99813 22.0582 3.92387C19.9839 1.8496 17.3773 0.49968 14.5129 0.011294C14.1123 -0.0600432 13.7336 0.214331 13.6623 0.614917C13.5964 1.02099 13.8653 1.39962 14.2714 1.47096C16.8285 1.90447 19.1608 3.11721 21.0155 4.96649C22.8703 6.82125 24.0775 9.15343 24.511 11.7106C24.5714 12.0728 24.8842 12.3252 25.2409 12.3252C25.2848 12.3252 25.3232 12.3197 25.3671 12.3142C25.7677 12.2539 26.042 11.8698 25.9707 11.4692Z" fill="#4C5959"/>
</svg>
