<svg width="42" height="42" viewBox="0 0 42 42" fill="none" xmlns="http://www.w3.org/2000/svg">
<rect width="42" height="42" rx="21" fill="#4CC65B"/>
<g clip-path="url(#clip0_1124_18)">
<path d="M21.4103 10H21.4046C15.1148 10 10 14.9335 10 21C10 23.4062 10.8042 25.6365 12.1717 27.4474L10.75 31.5338L15.1348 30.1822C16.9386 31.3345 19.0902 32 21.4103 32C27.7 32 32.8148 27.0652 32.8148 21C32.8148 14.9349 27.7 10 21.4103 10ZM28.0479 25.5334C27.7727 26.2828 26.6805 26.9042 25.8093 27.0858C25.2132 27.2082 24.4347 27.3058 21.8138 26.258C18.4614 24.9188 16.3026 21.6338 16.1343 21.4208C15.9732 21.2076 14.7797 19.6814 14.7797 18.1029C14.7797 16.5244 15.611 15.7558 15.9461 15.4257C16.2213 15.1549 16.6762 15.0311 17.1125 15.0311C17.2537 15.0311 17.3806 15.038 17.4947 15.0435C17.8298 15.0572 17.998 15.0765 18.219 15.5866C18.4943 16.226 19.1644 17.8045 19.2442 17.9668C19.3256 18.129 19.4069 18.349 19.2928 18.5622C19.1858 18.7822 19.0917 18.8798 18.9234 19.0668C18.7552 19.2538 18.5955 19.3968 18.4272 19.5975C18.2732 19.7722 18.0993 19.9592 18.2932 20.2822C18.4871 20.5985 19.1573 21.6532 20.144 22.5002C21.4173 23.5932 22.4497 23.9425 22.8191 24.091C23.0942 24.201 23.4222 24.1748 23.6233 23.9686C23.8785 23.7032 24.1937 23.2632 24.5145 22.8302C24.7427 22.5194 25.0307 22.4808 25.333 22.5908C25.641 22.694 27.2708 23.4708 27.6059 23.6318C27.941 23.794 28.162 23.871 28.2433 24.0072C28.3231 24.1432 28.3231 24.7826 28.0479 25.5334Z" fill="white"/>
</g>
<defs>
<clipPath id="clip0_1124_18">
<rect width="22.8148" height="22" fill="white" transform="translate(10 10)"/>
</clipPath>
</defs>
</svg>
